<mxfile host="Electron" modified="2023-12-24T01:31:23.730Z" agent="Mozilla/5.0 (Windows NT 10.0; Win64; x64) AppleWebKit/537.36 (KHTML, like Gecko) draw.io/22.1.11 Chrome/114.0.5735.289 Electron/25.9.8 Safari/537.36" etag="jtgQwZ4zzyv1YJ1uYv7d" version="22.1.11" type="device">
  <diagram name="Page-1" id="LhyGP-4TeVI03w29nmnV">
    <mxGraphModel dx="1120" dy="566" grid="1" gridSize="10" guides="1" tooltips="1" connect="1" arrows="1" fold="1" page="1" pageScale="1" pageWidth="850" pageHeight="1100" math="0" shadow="0">
      <root>
        <mxCell id="0" />
        <mxCell id="1" parent="0" />
        <mxCell id="iBvr6q9SODfBKAPITKv6-1" value="Player" style="swimlane;fontStyle=1;align=center;verticalAlign=top;childLayout=stackLayout;horizontal=1;startSize=26;horizontalStack=0;resizeParent=1;resizeParentMax=0;resizeLast=0;collapsible=1;marginBottom=0;whiteSpace=wrap;html=1;" vertex="1" parent="1">
          <mxGeometry x="40" y="50" width="160" height="138" as="geometry" />
        </mxCell>
        <mxCell id="iBvr6q9SODfBKAPITKv6-2" value="name:String&lt;br&gt;symbol:String" style="text;strokeColor=none;fillColor=none;align=left;verticalAlign=top;spacingLeft=4;spacingRight=4;overflow=hidden;rotatable=0;points=[[0,0.5],[1,0.5]];portConstraint=eastwest;whiteSpace=wrap;html=1;" vertex="1" parent="iBvr6q9SODfBKAPITKv6-1">
          <mxGeometry y="26" width="160" height="54" as="geometry" />
        </mxCell>
        <mxCell id="iBvr6q9SODfBKAPITKv6-3" value="" style="line;strokeWidth=1;fillColor=none;align=left;verticalAlign=middle;spacingTop=-1;spacingLeft=3;spacingRight=3;rotatable=0;labelPosition=right;points=[];portConstraint=eastwest;strokeColor=inherit;" vertex="1" parent="iBvr6q9SODfBKAPITKv6-1">
          <mxGeometry y="80" width="160" height="8" as="geometry" />
        </mxCell>
        <mxCell id="iBvr6q9SODfBKAPITKv6-4" value="choose_Name()&lt;br&gt;choose_Symbol()" style="text;strokeColor=none;fillColor=none;align=left;verticalAlign=top;spacingLeft=4;spacingRight=4;overflow=hidden;rotatable=0;points=[[0,0.5],[1,0.5]];portConstraint=eastwest;whiteSpace=wrap;html=1;" vertex="1" parent="iBvr6q9SODfBKAPITKv6-1">
          <mxGeometry y="88" width="160" height="50" as="geometry" />
        </mxCell>
        <mxCell id="iBvr6q9SODfBKAPITKv6-18" value="Menu" style="swimlane;fontStyle=1;align=center;verticalAlign=top;childLayout=stackLayout;horizontal=1;startSize=26;horizontalStack=0;resizeParent=1;resizeParentMax=0;resizeLast=0;collapsible=1;marginBottom=0;whiteSpace=wrap;html=1;" vertex="1" parent="1">
          <mxGeometry x="620" y="320" width="160" height="100" as="geometry" />
        </mxCell>
        <mxCell id="iBvr6q9SODfBKAPITKv6-20" value="" style="line;strokeWidth=1;fillColor=none;align=left;verticalAlign=middle;spacingTop=-1;spacingLeft=3;spacingRight=3;rotatable=0;labelPosition=right;points=[];portConstraint=eastwest;strokeColor=inherit;" vertex="1" parent="iBvr6q9SODfBKAPITKv6-18">
          <mxGeometry y="26" width="160" height="8" as="geometry" />
        </mxCell>
        <mxCell id="iBvr6q9SODfBKAPITKv6-21" value="start_Menu()&lt;br&gt;end_Menu()" style="text;strokeColor=none;fillColor=none;align=left;verticalAlign=top;spacingLeft=4;spacingRight=4;overflow=hidden;rotatable=0;points=[[0,0.5],[1,0.5]];portConstraint=eastwest;whiteSpace=wrap;html=1;" vertex="1" parent="iBvr6q9SODfBKAPITKv6-18">
          <mxGeometry y="34" width="160" height="66" as="geometry" />
        </mxCell>
        <mxCell id="iBvr6q9SODfBKAPITKv6-24" value="Board" style="swimlane;fontStyle=1;align=center;verticalAlign=top;childLayout=stackLayout;horizontal=1;startSize=26;horizontalStack=0;resizeParent=1;resizeParentMax=0;resizeLast=0;collapsible=1;marginBottom=0;whiteSpace=wrap;html=1;" vertex="1" parent="1">
          <mxGeometry x="580" y="60" width="160" height="140" as="geometry" />
        </mxCell>
        <object label="board:List" id="iBvr6q9SODfBKAPITKv6-25">
          <mxCell style="text;strokeColor=none;fillColor=none;align=left;verticalAlign=top;spacingLeft=4;spacingRight=4;overflow=hidden;rotatable=0;points=[[0,0.5],[1,0.5]];portConstraint=eastwest;whiteSpace=wrap;html=1;" vertex="1" parent="iBvr6q9SODfBKAPITKv6-24">
            <mxGeometry y="26" width="160" height="34" as="geometry" />
          </mxCell>
        </object>
        <mxCell id="iBvr6q9SODfBKAPITKv6-26" value="" style="line;strokeWidth=1;fillColor=none;align=left;verticalAlign=middle;spacingTop=-1;spacingLeft=3;spacingRight=3;rotatable=0;labelPosition=right;points=[];portConstraint=eastwest;strokeColor=inherit;" vertex="1" parent="iBvr6q9SODfBKAPITKv6-24">
          <mxGeometry y="60" width="160" height="8" as="geometry" />
        </mxCell>
        <mxCell id="iBvr6q9SODfBKAPITKv6-27" value="display_board()&lt;br&gt;updata_board()&lt;br&gt;reset_board()" style="text;strokeColor=none;fillColor=none;align=left;verticalAlign=top;spacingLeft=4;spacingRight=4;overflow=hidden;rotatable=0;points=[[0,0.5],[1,0.5]];portConstraint=eastwest;whiteSpace=wrap;html=1;" vertex="1" parent="iBvr6q9SODfBKAPITKv6-24">
          <mxGeometry y="68" width="160" height="72" as="geometry" />
        </mxCell>
        <mxCell id="iBvr6q9SODfBKAPITKv6-42" value="Game" style="swimlane;fontStyle=1;align=center;verticalAlign=top;childLayout=stackLayout;horizontal=1;startSize=26;horizontalStack=0;resizeParent=1;resizeParentMax=0;resizeLast=0;collapsible=1;marginBottom=0;whiteSpace=wrap;html=1;" vertex="1" parent="1">
          <mxGeometry x="280" y="190" width="160" height="210" as="geometry" />
        </mxCell>
        <mxCell id="iBvr6q9SODfBKAPITKv6-43" value="board:Board&lt;br style=&quot;border-color: var(--border-color);&quot;&gt;players:Player[]&lt;br style=&quot;border-color: var(--border-color);&quot;&gt;menu:Menu&lt;br style=&quot;border-color: var(--border-color);&quot;&gt;current_player_index:int" style="text;strokeColor=none;fillColor=none;align=left;verticalAlign=top;spacingLeft=4;spacingRight=4;overflow=hidden;rotatable=0;points=[[0,0.5],[1,0.5]];portConstraint=eastwest;whiteSpace=wrap;html=1;" vertex="1" parent="iBvr6q9SODfBKAPITKv6-42">
          <mxGeometry y="26" width="160" height="74" as="geometry" />
        </mxCell>
        <mxCell id="iBvr6q9SODfBKAPITKv6-44" value="" style="line;strokeWidth=1;fillColor=none;align=left;verticalAlign=middle;spacingTop=-1;spacingLeft=3;spacingRight=3;rotatable=0;labelPosition=right;points=[];portConstraint=eastwest;strokeColor=inherit;" vertex="1" parent="iBvr6q9SODfBKAPITKv6-42">
          <mxGeometry y="100" width="160" height="8" as="geometry" />
        </mxCell>
        <mxCell id="iBvr6q9SODfBKAPITKv6-45" value="start_game()&lt;br&gt;play_turn()&lt;br&gt;check_win()&lt;br&gt;check_drow()&lt;br&gt;restart_game()&lt;br&gt;quit_game()&lt;span style=&quot;white-space: pre;&quot;&gt;&#x9;&lt;/span&gt;" style="text;strokeColor=none;fillColor=none;align=left;verticalAlign=top;spacingLeft=4;spacingRight=4;overflow=hidden;rotatable=0;points=[[0,0.5],[1,0.5]];portConstraint=eastwest;whiteSpace=wrap;html=1;" vertex="1" parent="iBvr6q9SODfBKAPITKv6-42">
          <mxGeometry y="108" width="160" height="102" as="geometry" />
        </mxCell>
        <mxCell id="iBvr6q9SODfBKAPITKv6-48" value="" style="endArrow=diamond;html=1;rounded=0;exitX=1;exitY=0.072;exitDx=0;exitDy=0;exitPerimeter=0;entryX=0.203;entryY=-0.016;entryDx=0;entryDy=0;entryPerimeter=0;endFill=1;" edge="1" parent="1" source="iBvr6q9SODfBKAPITKv6-1" target="iBvr6q9SODfBKAPITKv6-42">
          <mxGeometry width="50" height="50" relative="1" as="geometry">
            <mxPoint x="260" y="155" as="sourcePoint" />
            <mxPoint x="310" y="105" as="targetPoint" />
          </mxGeometry>
        </mxCell>
        <mxCell id="iBvr6q9SODfBKAPITKv6-49" value="" style="endArrow=diamond;html=1;rounded=0;exitX=0.01;exitY=0.05;exitDx=0;exitDy=0;exitPerimeter=0;endFill=1;" edge="1" parent="1" source="iBvr6q9SODfBKAPITKv6-24">
          <mxGeometry width="50" height="50" relative="1" as="geometry">
            <mxPoint x="424.9999999999999" y="120" as="sourcePoint" />
            <mxPoint x="390" y="190" as="targetPoint" />
          </mxGeometry>
        </mxCell>
        <mxCell id="iBvr6q9SODfBKAPITKv6-50" value="" style="endArrow=diamond;html=1;rounded=0;exitX=0.339;exitY=-0.03;exitDx=0;exitDy=0;exitPerimeter=0;endFill=1;entryX=1.016;entryY=0.057;entryDx=0;entryDy=0;entryPerimeter=0;" edge="1" parent="1" source="iBvr6q9SODfBKAPITKv6-18" target="iBvr6q9SODfBKAPITKv6-42">
          <mxGeometry width="50" height="50" relative="1" as="geometry">
            <mxPoint x="450" y="200" as="sourcePoint" />
            <mxPoint x="520" y="350" as="targetPoint" />
          </mxGeometry>
        </mxCell>
      </root>
    </mxGraphModel>
  </diagram>
</mxfile>
